/vscmnt/brussel_pixiu_data/_data_brussel/112/vsc11236/PredSimResults/SUBJ07opt3D/weighted-LRposFixed/expIG/worker_03.mot
version=1
nRows=6
nColumns=50
inDegrees=yes
endheader
                time	         pelvis_tilt	         pelvis_list	     pelvis_rotation	           pelvis_tx	           pelvis_ty	           pelvis_tz	       hip_flexion_r	     hip_adduction_r	      hip_rotation_r	        knee_angle_r	       ankle_angle_r	         mtp_angle_r	       hip_flexion_l	     hip_adduction_l	      hip_rotation_l	        knee_angle_l	       ankle_angle_l	         mtp_angle_l	    lumbar_extension	      lumbar_bending	     lumbar_rotation	 ercspn_r/activation	 intobl_r/activation	 extobl_r/activation	    abd_r/activation	    add_r/activation	hamstrings_r/activation	bifemsh_r/activation	glut_max_r/activation	iliopsoas_r/activation	rect_fem_r/activation	  vasti_r/activation	gastroc_r/activation	 soleus_r/activation	tib_ant_r/activation	 ercspn_l/activation	 intobl_l/activation	 extobl_l/activation	    abd_l/activation	    add_l/activation	hamstrings_l/activation	bifemsh_l/activation	glut_max_l/activation	iliopsoas_l/activation	rect_fem_l/activation	  vasti_l/activation	gastroc_l/activation	 soleus_l/activation	tib_ant_l/activation	
          1.10914267	         -4.36706431	         -0.23766453	          9.69572907	          1.37533691	          0.84560358	         -0.01454538	         31.26822196	         -2.85203500	         -6.09638215	         -8.21461818	          2.63592020	          0.27398865	        -14.82359904	         -0.23487538	          5.35501312	         -8.87404485	          8.05372439	         29.45444411	        -12.09742936	         -1.24381392	         -1.53980453	          0.12491004	          0.12635490	          0.01000000	          0.01483795	          0.18631128	          0.08885425	          0.11072426	          0.11027290	          0.04616087	          0.01000003	          0.00999999	          0.01000000	          0.00999999	          0.43040246	          0.11870715	          0.00999999	          0.00999999	          0.03122966	          0.05935380	          0.01739293	          0.16094120	          0.01970895	          0.42125181	          0.01184857	          0.01137014	          0.17029116	          0.32099464	          0.01666920	
          1.12023409	         -4.35243772	         -0.18902614	          9.73756213	          1.39200103	          0.84385214	         -0.01404683	         31.28229860	         -2.66702691	         -5.80549760	        -10.24174053	          2.27672452	          0.25012167	        -15.35618955	         -0.34225804	          5.04591195	         -9.93914711	          7.05441389	         31.07401348	        -11.93190613	         -0.89160785	         -1.74097724	          0.10542204	          0.12664158	          0.00999999	          0.01252299	          0.17435450	          0.07736510	          0.09699213	          0.17542157	          0.03895902	          0.01000000	          0.00999999	          0.01403840	          0.01184856	          0.47655713	          0.14174142	          0.00999999	          0.01000000	          0.02635732	          0.09209134	          0.01467949	          0.13605407	          0.01663403	          0.40661451	          0.01000001	          0.00999999	          0.14372295	          0.29952065	          0.01406853	
          1.13132552	         -4.33212921	         -0.12788986	          9.72150609	          1.40880116	          0.84233552	         -0.01347910	         31.13474716	         -2.51984283	         -5.49005729	        -12.03280301	          1.87678000	          0.24040445	        -15.66966845	         -0.40701849	          4.68358882	        -11.42575837	          5.95350348	         32.64882604	        -11.76848594	         -0.54896166	         -1.93015025	          0.13844094	          0.10688342	          0.00999999	          0.09158905	          0.18583344	          0.06743839	          0.09490268	          0.18566819	          0.03288077	          0.00999999	          0.00999999	          0.01184818	          0.00999999	          0.55209098	          0.16266815	          0.00999999	          0.00999999	          0.02224515	          0.08342968	          0.01259320	          0.11482756	          0.01403885	          0.35783854	          0.01000001	          0.00999999	          0.12129982	          0.27569992	          0.01187361	
          1.14241695	         -4.30782068	         -0.04551762	          9.64978583	          1.42553879	          0.84120018	         -0.01282046	         30.91541539	         -2.38615402	         -5.23684160	        -13.69115090	          1.48395464	          0.21875901	        -15.70814581	         -0.42167804	          4.27645203	        -13.39156805	          4.70814058	         34.11293658	        -11.62683120	         -0.22651835	         -2.10480137	          0.15512975	          0.09020786	          0.00999999	          0.14785467	          0.19361433	          0.05691691	          0.08009631	          0.21814654	          0.02775083	          0.00999999	          0.00999999	          0.00999999	          0.00999999	          0.57159109	          0.20074946	          0.00999999	          0.00999999	          0.01877454	          0.08119635	          0.01440802	          0.09691332	          0.01184856	          0.30200988	          0.01000001	          0.00999999	          0.10237506	          0.23985343	          0.01002113	
          1.15350837	         -4.28012457	          0.04649983	          9.52835484	          1.44202149	          0.84060021	         -0.01208465	         30.72429536	         -2.25929806	         -5.03094446	        -15.42592056	          1.39861579	          0.19477669	        -15.41773275	         -0.39930496	          3.83451648	        -15.89298141	          3.32604287	         35.28146128	        -11.51951155	          0.08949941	         -2.26127175	          0.16357965	          0.07613396	          0.00999999	          0.18884866	          0.21094303	          0.04803951	          0.06759998	          0.24292604	          0.02342125	          0.01000000	          0.03059625	          0.00999999	          0.00999999	          0.56198400	          0.24306748	          0.00999999	          0.00999999	          0.01584541	          0.09995094	          0.01546538	          0.09183098	          0.00999999	          0.25489139	          0.01000000	          0.00999999	          0.08640287	          0.20243236	          0.00999999	
          1.16459980	         -4.25060782	          0.14139271	          9.35959881	          1.45810946	          0.84067241	         -0.01128525	         30.57994395	         -2.13350649	         -4.86322484	        -17.24773346	          1.66887589	          0.17538559	        -14.74893554	         -0.34793958	          3.36276479	        -18.98324215	          1.83125129	         35.88560838	        -11.45232781	          0.40438382	         -2.39666460	          0.17372755	          0.06425581	          0.00999999	          0.20773753	          0.22886577	          0.04329657	          0.05705328	          0.25175657	          0.01976715	          0.01000000	          0.06148090	          0.00999999	          0.00999999	          0.50281462	          0.26926704	          0.00999999	          0.00999999	          0.01337326	          0.13142082	          0.01655083	          0.07750393	          0.00999999	          0.21512416	          0.01000000	          0.00999999	          0.07292261	          0.17084960	          0.00999999	
